<svg width="23" height="24" viewBox="0 0 23 24" fill="none" xmlns="http://www.w3.org/2000/svg">
<path d="M13.8138 9.52286L13.8229 9.53288L13.8324 9.54239C14.4877 10.1928 14.8182 10.9999 14.8182 12C14.8182 13.0004 14.4872 13.834 13.823 14.5298C13.2051 15.177 12.4427 15.5 11.5 15.5C10.5614 15.5 9.77663 15.1794 9.11749 14.5296C8.49549 13.8371 8.18182 13.0035 8.18182 12C8.18182 10.9916 8.49817 10.1814 9.11736 9.53274C9.78074 8.83777 10.5657 8.5 11.5 8.5C12.4335 8.5 13.1934 8.83675 13.8138 9.52286ZM19.1364 0.5H3.86364C2.92942 0.5 2.12324 0.849131 1.47355 1.52976C0.824714 2.20949 0.5 3.04284 0.5 4V20C0.5 20.9572 0.824714 21.7905 1.47355 22.4702C2.12324 23.1509 2.92942 23.5 3.86364 23.5H19.1364C20.0706 23.5 20.8768 23.1509 21.5265 22.4702C22.1753 21.7905 22.5 20.9572 22.5 20V4C22.5 3.04284 22.1753 2.2095 21.5265 1.52976C20.8768 0.849131 20.0706 0.5 19.1364 0.5ZM18.6364 6.5H16.7727V4.5H18.6364V6.5ZM3.40909 20V10.5H5.45776C5.33485 10.9976 5.27273 11.4978 5.27273 12C5.27273 13.7905 5.87585 15.3322 7.0815 16.5952C8.28802 17.8592 9.77033 18.5 11.5 18.5C13.2297 18.5 14.712 17.8592 15.9185 16.5952C17.1242 15.3322 17.7273 13.7905 17.7273 12C17.7273 11.4978 17.6651 10.9976 17.5422 10.5H19.5909V20C19.5909 20.2619 19.528 20.3656 19.4906 20.4048C19.4573 20.4396 19.3714 20.5 19.1364 20.5H3.86364C3.62861 20.5 3.54268 20.4396 3.50941 20.4048C3.47198 20.3656 3.40909 20.2619 3.40909 20Z" fill="#6A6F7D" stroke="black"/>
</svg>
